<svg width="128" height="128" viewBox="0 0 128 128" fill="none" xmlns="http://www.w3.org/2000/svg">
<circle cx="64" cy="64" r="64" fill="#E4FBEF"/>
<circle cx="64" cy="64.0003" r="50.3606" fill="#60D2B0" fill-opacity="0.25"/>
<circle cx="63.6501" cy="63.6501" r="38.47" fill="#24AE5F"/>
<path fill-rule="evenodd" clip-rule="evenodd" d="M53.249 81.4808L49.8396 78.0714L82.8776 44.9128C84.0073 43.783 85.8391 43.783 86.9689 44.9128L88.3327 46.2765C89.4624 47.4063 89.4624 49.2381 88.3327 50.3679L57.3403 81.4808C56.2106 82.6106 54.3788 82.6106 53.249 81.4808Z" fill="white"/>
<path fill-rule="evenodd" clip-rule="evenodd" d="M60.7437 78.0716L57.3343 81.4809C56.2045 82.6108 54.3727 82.6108 53.243 81.4809L39.667 67.9049C38.5371 66.7752 38.5371 64.9434 39.667 63.8136L41.0306 62.4499C42.1605 61.3201 43.9922 61.3201 45.122 62.4499L60.7437 78.0716Z" fill="white"/>
</svg>
