<svg width="96" height="91" viewBox="0 0 96 91" fill="none" xmlns="http://www.w3.org/2000/svg">
<path d="M95.9994 34.0886C95.9751 35.792 95.2342 37.3843 93.9122 38.5713L47.9991 79.8655L38.2042 88.675C38.1274 88.7443 38.0486 88.8084 37.968 88.8708L37.9417 88.8933C37.8667 88.9557 37.7917 89.0163 37.7149 89.0735C37.6286 89.1376 37.5424 89.1965 37.4542 89.2554L37.4055 89.2883C37.3249 89.342 37.2442 89.3957 37.1599 89.446C37.068 89.5014 36.9742 89.5534 36.8805 89.6019L36.8317 89.6296C36.7474 89.6764 36.6611 89.7214 36.5749 89.763C36.4755 89.8115 36.3761 89.8531 36.2767 89.8947L36.2299 89.9138C36.1417 89.9519 36.0536 89.9883 35.9655 90.0212C35.8567 90.0627 35.7499 90.0974 35.6411 90.1303L35.6055 90.1407C35.5136 90.1719 35.4255 90.1996 35.3374 90.2239C35.2155 90.2568 35.0955 90.2828 34.9736 90.3088L34.9549 90.3122C34.863 90.3348 34.7805 90.3521 34.6961 90.3677C34.5236 90.3971 34.3774 90.4144 34.2667 90.4266C34.1899 90.4387 34.1186 90.4474 34.0455 90.4526C33.828 90.4716 33.6086 90.482 33.3909 90.482C33.1697 90.482 32.9466 90.4716 32.7251 90.4526C32.6482 90.4456 32.5714 90.4352 32.4926 90.4248C32.3839 90.411 32.2357 90.3937 32.0632 90.3625C31.977 90.3469 31.8889 90.3278 31.8007 90.307L31.7801 90.3018C31.6564 90.2758 31.5345 90.2481 31.4145 90.2152C31.3207 90.1892 31.2326 90.1615 31.1464 90.132L31.1051 90.1182C30.9945 90.0835 30.8839 90.0472 30.7732 90.0056C30.687 89.9727 30.597 89.9345 30.507 89.8947L30.4582 89.8739C30.357 89.8306 30.2557 89.7873 30.1582 89.7388C30.0701 89.6955 29.9801 89.6469 29.892 89.5984L29.8432 89.5707C29.7495 89.5205 29.6557 89.4685 29.5639 89.4113C29.4795 89.3593 29.3951 89.3022 29.3107 89.2433L29.2601 89.2086C29.1739 89.1497 29.0876 89.0908 29.0032 89.0267C28.9245 88.9661 28.8457 88.9002 28.7689 88.8344L28.7445 88.8136C28.662 88.746 28.5851 88.6819 28.5101 88.6126L2.01825 64.1352C-0.67275 61.6487 -0.67275 57.6043 2.01825 55.1176C3.32156 53.9134 5.05444 53.2496 6.89775 53.2496C8.74106 53.2496 10.4739 53.9134 11.7772 55.1176L33.4558 75.1488L47.9989 62.0697L84.2861 29.4342C87.0146 26.9806 91.3916 27.036 94.0453 29.5554C95.3299 30.7755 96.0257 32.3852 95.9994 34.0886Z" fill="#24AE5F"/>
<path d="M35.241 35.8602C32.3 34.4064 29.8925 32.2377 28.2786 29.5888C27.6897 28.6218 26.5633 28.0209 25.3386 28.0209C25.3384 28.0209 25.3384 28.0209 25.3384 28.0209C24.1141 28.0209 22.9873 28.6216 22.398 29.5885C20.7842 32.2377 18.3767 34.4064 15.4355 35.8603C14.362 36.3912 13.6954 37.406 13.6956 38.5092C13.6956 39.6121 14.3628 40.6271 15.4357 41.1574C18.3767 42.6112 20.7842 44.7799 22.3982 47.4293C22.9875 48.3963 24.1141 48.9968 25.3388 48.9967C26.5632 48.9967 27.6899 48.3956 28.2786 47.4291C29.8926 44.7797 32.3002 42.611 35.2411 41.1573C36.3145 40.6268 36.9813 39.6121 36.9813 38.5091C36.9813 37.4062 36.3145 36.391 35.241 35.8602Z" fill="#FAA017"/>
<path d="M65.6956 26.9562C65.6956 28.058 65.0275 29.0737 63.9557 29.6032C61.0133 31.0567 58.6071 33.226 56.9916 35.8764C56.4038 36.8421 55.2765 37.4438 54.0531 37.4438C54.0512 37.4438 54.0512 37.4438 54.0512 37.4438C52.8261 37.4438 51.7005 36.8419 51.111 35.8747C49.9873 34.0296 48.477 32.4157 46.6699 31.1171C45.885 30.5497 45.0428 30.0428 44.1508 29.6032C43.0768 29.0737 42.4087 28.0582 42.4087 26.9562C42.4087 25.8526 43.0768 24.8369 44.1487 24.3075C45.0407 23.8661 45.8829 23.3591 46.6697 22.7936C48.4768 21.4934 49.9871 19.8811 51.1127 18.0342C51.7003 17.0686 52.8259 16.4669 54.0512 16.4669C54.0512 16.4669 54.0512 16.4669 54.0531 16.4669C55.2763 16.4669 56.4038 17.0687 56.9916 18.0342C58.6071 20.6847 61.0133 22.8539 63.9557 24.3075C65.0275 24.8369 65.6956 25.8526 65.6956 26.9562Z" fill="#FAA017"/>
<path d="M40.9839 8.78743C38.0429 7.33368 35.6354 5.16495 34.0215 2.51606C33.4326 1.54902 32.3063 0.948181 31.0815 0.948181C31.0814 0.948181 31.0814 0.948181 31.0814 0.948181C29.857 0.948181 28.7303 1.54885 28.141 2.51572C26.5271 5.16495 24.1196 7.33368 21.1784 8.7876C20.1049 9.31844 19.4383 10.3332 19.4385 11.4365C19.4385 12.5394 20.1057 13.5543 21.1786 14.0847C24.1196 15.5384 26.5271 17.7072 28.1412 20.3566C28.7305 21.3236 29.857 21.9241 31.0817 21.9239C32.3061 21.9239 33.4328 21.3229 34.0215 20.3564C35.6356 17.707 38.0431 15.5383 40.9841 14.0845C42.0574 13.5538 42.7242 12.5394 42.7242 11.4363C42.7242 10.3334 42.0574 9.31827 40.9839 8.78743Z" fill="#FAA017"/>
</svg>
