<svg width="40" height="40" viewBox="0 0 40 40" fill="none" xmlns="http://www.w3.org/2000/svg">
<rect width="40" height="40" rx="10" fill="#E5E5E5"/>
<path d="M15 14V11C15 10.7348 15.1054 10.4804 15.2929 10.2929C15.4804 10.1054 15.7348 10 16 10H28C28.2652 10 28.5196 10.1054 28.7071 10.2929C28.8946 10.4804 29 10.7348 29 11V25C29 25.2652 28.8946 25.5196 28.7071 25.7071C28.5196 25.8946 28.2652 26 28 26H25V29C25 29.552 24.55 30 23.993 30H12.007C11.8751 30.0008 11.7444 29.9755 11.6223 29.9256C11.5002 29.8757 11.3892 29.8022 11.2957 29.7093C11.2021 29.6164 11.1278 29.5059 11.0771 29.3841C11.0263 29.2624 11.0001 29.1319 11 29L11.003 15C11.003 14.448 11.453 14 12.01 14H15ZM17 14H25V24H27V12H17V14ZM15 19V21H21V19H15ZM15 23V25H21V23H15Z" fill="#1D1D1B"/>
</svg>
