<svg width="32" height="32" viewBox="0 0 32 32" fill="none" xmlns="http://www.w3.org/2000/svg">
<path d="M30.2666 23.3333L19.4666 4.66665C18.4 2.79998 15.8666 2.13332 14 3.19998C13.3333 3.59998 12.8 4.13332 12.5333 4.66665L1.73331 23.3333C0.666641 25.2 1.33331 27.7333 3.19997 28.8C3.86664 29.2 4.53331 29.3333 5.19997 29.3333H26.6666C28.9333 29.3333 30.6666 27.4667 30.6666 25.3333C30.8 24.5333 30.5333 23.8666 30.2666 23.3333ZM16 24C15.2 24 14.6666 23.4667 14.6666 22.6666C14.6666 21.8666 15.2 21.3333 16 21.3333C16.8 21.3333 17.3333 21.8666 17.3333 22.6666C17.3333 23.4667 16.8 24 16 24ZM17.3333 17.3333C17.3333 18.1333 16.8 18.6666 16 18.6666C15.2 18.6666 14.6666 18.1333 14.6666 17.3333V12C14.6666 11.2 15.2 10.6666 16 10.6666C16.8 10.6666 17.3333 11.2 17.3333 12V17.3333Z" fill="#F6515B"/>
</svg>
