<svg width="65" height="64" viewBox="0 0 65 64" fill="none" xmlns="http://www.w3.org/2000/svg">
<path d="M40.5002 10C36.4144 10.0034 32.41 11.1432 28.9348 13.292C25.4596 15.4408 22.6507 18.5139 20.822 22.1677L20.8207 22.1676C19.2893 25.2188 18.4936 28.5861 18.4973 32C18.4973 32.5304 18.2866 33.0391 17.9115 33.4142C17.5364 33.7893 17.0277 34 16.4973 34C15.9669 34 15.4582 33.7893 15.0831 33.4142C14.708 33.0391 14.4973 32.5304 14.4973 32C14.4942 28.6167 15.155 25.2657 16.4423 22.1368C12.4112 22.6592 8.73014 24.6964 6.14678 27.8347C3.56342 30.9729 2.27152 34.9769 2.5335 39.0332C2.79548 43.0895 4.59171 46.894 7.5573 49.6739C10.5229 52.4538 14.4355 54.0005 18.5002 54H40.5002C46.335 54 51.9308 51.6822 56.0566 47.5564C60.1824 43.4305 62.5002 37.8348 62.5002 32C62.5002 26.1652 60.1824 20.5695 56.0566 16.4437C51.9308 12.3179 46.335 10 40.5002 10ZM48.3979 37.8994C48.2122 38.0851 47.9918 38.2325 47.7491 38.333C47.5065 38.4335 47.2464 38.4852 46.9837 38.4852C46.7211 38.4852 46.461 38.4335 46.2184 38.333C45.9757 38.2325 45.7553 38.0851 45.5696 37.8994L40.4985 32.8284V48C40.4985 48.5304 40.2878 49.0391 39.9127 49.4142C39.5377 49.7893 39.0289 50 38.4985 50C37.9681 50 37.4594 49.7893 37.0843 49.4142C36.7092 49.0391 36.4985 48.5304 36.4985 48V32.8284L31.4275 37.8994C31.2418 38.0853 31.0213 38.2328 30.7786 38.3335C30.5359 38.4341 30.2758 38.486 30.013 38.4861C29.7503 38.4862 29.4901 38.4345 29.2473 38.334C29.0046 38.2334 28.784 38.0861 28.5982 37.9003C28.4124 37.7145 28.2651 37.4939 28.1646 37.2512C28.0641 37.0084 28.0124 36.7482 28.0124 36.4855C28.0125 36.2227 28.0644 35.9626 28.165 35.7199C28.2657 35.4772 28.4132 35.2567 28.5991 35.071L37.0834 26.5868C37.1304 26.5397 37.1798 26.4951 37.2314 26.4529C37.2523 26.4357 37.2744 26.4209 37.2959 26.4047C37.3265 26.3815 37.3567 26.3579 37.3886 26.3364C37.4154 26.3185 37.4433 26.3031 37.4707 26.2866C37.4992 26.2695 37.5271 26.2517 37.5564 26.236C37.5848 26.2208 37.614 26.208 37.6429 26.1943C37.6731 26.18 37.7028 26.1649 37.7339 26.1521C37.7617 26.1406 37.7903 26.1313 37.8186 26.1211C37.8518 26.109 37.8847 26.0964 37.9187 26.0861C37.9469 26.0776 37.9755 26.0714 38.0039 26.0641C38.0386 26.0553 38.073 26.0456 38.1083 26.0387C38.1408 26.0322 38.1735 26.0286 38.2062 26.0237C38.2381 26.019 38.2695 26.0131 38.3018 26.0099C38.3598 26.0042 38.4181 26.0018 38.4763 26.0011C38.4838 26.001 38.491 26 38.4985 26C38.506 26 38.5132 26.001 38.5207 26.0011C38.5789 26.0018 38.6372 26.0042 38.6952 26.0099C38.7275 26.0131 38.7589 26.019 38.7908 26.0237C38.8235 26.0286 38.8562 26.0322 38.8887 26.0387C38.924 26.0457 38.9584 26.0553 38.9931 26.0641C39.0215 26.0714 39.0501 26.0776 39.0783 26.0861C39.1123 26.0964 39.1452 26.109 39.1784 26.1211C39.2067 26.1313 39.2353 26.1406 39.2631 26.1521C39.2941 26.1649 39.3239 26.18 39.3541 26.1943C39.383 26.208 39.4122 26.2208 39.4406 26.236C39.4699 26.2517 39.4978 26.2695 39.5263 26.2866C39.5537 26.3031 39.5816 26.3185 39.6084 26.3364C39.6403 26.3578 39.6705 26.3815 39.7011 26.4047C39.7226 26.4209 39.7447 26.4357 39.7656 26.4529C39.8172 26.4951 39.8666 26.5397 39.9136 26.5868L48.3979 35.071C48.5836 35.2567 48.731 35.4772 48.8315 35.7199C48.932 35.9625 48.9838 36.2226 48.9838 36.4852C48.9838 36.7479 48.932 37.0079 48.8315 37.2506C48.731 37.4932 48.5837 37.7137 48.3979 37.8994Z" fill="#D5D5D5"/>
</svg>
