<svg width="20" height="20" viewBox="0 0 20 20" fill="none" xmlns="http://www.w3.org/2000/svg">
<g clip-path="url(#clip0_1525_6706)">
<path fill-rule="evenodd" clip-rule="evenodd" d="M6.07733 13.5776C6.40277 13.2521 6.9304 13.2521 7.25584 13.5776L9.99992 16.3217L12.744 13.5776C13.0694 13.2521 13.5971 13.2521 13.9225 13.5776C14.2479 13.903 14.2479 14.4306 13.9225 14.7561L10.5892 18.0894C10.2637 18.4149 9.7361 18.4149 9.41066 18.0894L6.07733 14.7561C5.75189 14.4306 5.75189 13.903 6.07733 13.5776Z" fill="black"/>
<path fill-rule="evenodd" clip-rule="evenodd" d="M10.0001 9.1665C10.4603 9.1665 10.8334 9.5396 10.8334 9.99984V17.4998C10.8334 17.9601 10.4603 18.3332 10.0001 18.3332C9.53984 18.3332 9.16675 17.9601 9.16675 17.4998V9.99984C9.16675 9.5396 9.53984 9.1665 10.0001 9.1665Z" fill="black"/>
<path fill-rule="evenodd" clip-rule="evenodd" d="M7.22289 1.66158C8.35663 1.62081 9.48484 1.83777 10.5226 2.29612C11.5603 2.75447 12.4806 3.44227 13.2141 4.30774C13.8062 5.00637 14.2641 5.80608 14.5669 6.66645L14.9993 6.66645C16.0619 6.66576 17.0977 7.00361 17.9553 7.63101C18.8131 8.25854 19.4486 9.14308 19.7696 10.1563C20.0907 11.1695 20.0805 12.2586 19.7405 13.2656C19.4006 14.2726 18.7486 15.1451 17.8793 15.7564C17.5028 16.0212 16.983 15.9306 16.7182 15.5541C16.4535 15.1777 16.5441 14.6579 16.9206 14.3931C17.5002 13.9855 17.9348 13.4039 18.1614 12.7325C18.388 12.0612 18.3948 11.3351 18.1808 10.6597C17.9668 9.9842 17.5431 9.39451 16.9713 8.97616C16.3994 8.5578 15.7091 8.33256 15.0006 8.33311H13.9499C13.5694 8.33311 13.2373 8.07543 13.1427 7.7069C12.9234 6.85222 12.5131 6.05844 11.9426 5.38529C11.3721 4.71215 10.6564 4.17719 9.84923 3.8207C9.04208 3.46421 8.16459 3.29546 7.28279 3.32717C6.401 3.35888 5.53789 3.59022 4.75844 4.00377C3.97899 4.41733 3.30351 5.00231 2.78286 5.71469C2.2622 6.42707 1.90995 7.24829 1.7526 8.11651C1.59525 8.98473 1.63691 9.87734 1.87445 10.7271C2.112 11.5769 2.53922 12.3617 3.12397 13.0225C3.42897 13.3672 3.39682 13.8938 3.05216 14.1988C2.7075 14.5038 2.18084 14.4717 1.87584 14.127C1.12402 13.2775 0.574727 12.2684 0.269318 11.1758C-0.0360905 10.0832 -0.0896594 8.93559 0.112645 7.8193C0.314948 6.70302 0.767853 5.64717 1.43726 4.73125C2.10667 3.81533 2.97514 3.06321 3.97729 2.5315C4.97944 1.99979 6.08916 1.70235 7.22289 1.66158Z" fill="black"/>
</g>
<defs>
<clipPath id="clip0_1525_6706">
<rect width="20" height="20" fill="white"/>
</clipPath>
</defs>
</svg>
