<svg width="16" height="16" viewBox="0 0 16 16" fill="none" xmlns="http://www.w3.org/2000/svg">
<path d="M13 2H3C2.73489 2.00034 2.48074 2.10581 2.29327 2.29327C2.10581 2.48074 2.00034 2.73489 2 3V6.6665C2 12.2578 6.73877 14.1118 7.68945 14.4268C7.89084 14.4951 8.10916 14.4951 8.31055 14.4268C9.26074 14.1118 14 12.2583 14 6.6665V3C13.9997 2.73489 13.8942 2.48074 13.7067 2.29327C13.5193 2.10581 13.2651 2.00034 13 2ZM11.0952 6.36182L7.42822 9.86182C7.33518 9.95052 7.21156 10 7.08301 10C6.95446 10 6.83084 9.95052 6.73779 9.86182L4.90479 8.11182C4.8572 8.0665 4.81902 8.01225 4.79241 7.95216C4.76581 7.89208 4.75131 7.82734 4.74973 7.76165C4.74816 7.69596 4.75955 7.63061 4.78325 7.56932C4.80695 7.50803 4.8425 7.45202 4.88786 7.40447C4.93322 7.35693 4.9875 7.3188 5.04761 7.29225C5.10772 7.26569 5.17247 7.25125 5.23816 7.24974C5.30385 7.24822 5.3692 7.25967 5.43046 7.28343C5.49173 7.30718 5.54771 7.34278 5.59522 7.38818L7.08301 8.80859L10.4048 5.63818C10.4523 5.59278 10.5083 5.55718 10.5695 5.53343C10.6308 5.50967 10.6961 5.49822 10.7618 5.49974C10.8275 5.50125 10.8923 5.51569 10.9524 5.54225C11.0125 5.5688 11.0668 5.60693 11.1121 5.65447C11.1575 5.70202 11.193 5.75803 11.2167 5.81932C11.2404 5.88061 11.2518 5.94596 11.2503 6.01165C11.2487 6.07734 11.2342 6.14208 11.2076 6.20216C11.181 6.26225 11.1428 6.3165 11.0952 6.36182H11.0952Z" fill="#098A16"/>
</svg>
