<svg width="60" height="22" viewBox="0 0 60 22" fill="none" xmlns="http://www.w3.org/2000/svg">
<path d="M0.594727 21.3936C0.745117 19.958 0.827148 18.5908 0.84082 17.292C0.868164 16.0068 0.861328 14.7354 0.820312 13.4775C0.792969 12.2197 0.745117 10.9482 0.676758 9.66309C0.608398 8.37793 0.567383 7.01758 0.553711 5.58203C0.594727 5.39062 0.642578 5.24707 0.697266 5.15137C0.765625 5.04199 0.936523 5.01465 1.20996 5.06934C1.49707 5.1377 1.66797 5.30176 1.72266 5.56152C1.77734 5.80762 1.79102 6.08789 1.76367 6.40234C1.73633 6.7168 1.69531 7.03125 1.64062 7.3457C1.58594 7.66016 1.58594 7.91309 1.64062 8.10449C2.07812 7.79004 2.54297 7.46191 3.03516 7.12012C3.52734 6.77832 4.04004 6.47754 4.57324 6.21777C5.10645 5.94434 5.66016 5.74609 6.23438 5.62305C6.80859 5.48633 7.38281 5.47949 7.95703 5.60254C8.66797 5.7666 9.16016 6.0127 9.43359 6.34082C9.7207 6.65527 9.83008 7.02441 9.76172 7.44824C9.70703 7.8584 9.51562 8.31641 9.1875 8.82227C8.85938 9.31445 8.45605 9.81348 7.97754 10.3193C7.49902 10.8252 6.96582 11.3242 6.37793 11.8164C5.79004 12.3086 5.21582 12.7666 4.65527 13.1904C4.09473 13.6006 3.56836 13.9629 3.07617 14.2773C2.59766 14.5918 2.21484 14.8242 1.92773 14.9746C1.91406 15.1387 1.89355 15.3984 1.86621 15.7539C1.85254 16.0957 1.83203 16.4854 1.80469 16.9229C1.79102 17.3604 1.77051 17.8184 1.74316 18.2969C1.72949 18.7754 1.70898 19.2334 1.68164 19.6709C1.66797 20.1084 1.64746 20.498 1.62012 20.8398C1.60645 21.1816 1.59961 21.4346 1.59961 21.5986C1.57227 21.6123 1.52441 21.626 1.45605 21.6396C1.3877 21.6533 1.30566 21.6602 1.20996 21.6602C1.11426 21.6738 1.02539 21.6807 0.943359 21.6807C0.861328 21.6943 0.806641 21.6943 0.779297 21.6807C0.738281 21.6807 0.697266 21.6396 0.65625 21.5576C0.615234 21.4893 0.594727 21.4346 0.594727 21.3936ZM1.74316 10.1553C1.70215 10.3467 1.68848 10.5859 1.70215 10.873C1.72949 11.1465 1.75684 11.4404 1.78418 11.7549C1.8252 12.0557 1.86621 12.3496 1.90723 12.6367C1.94824 12.9238 1.97559 13.1699 1.98926 13.375C2.50879 12.9785 3.11035 12.5752 3.79395 12.165C4.49121 11.7549 5.16113 11.3105 5.80371 10.832C6.45996 10.3535 7.04102 9.82031 7.54688 9.23242C8.05273 8.64453 8.3877 7.98145 8.55176 7.24316C8.60645 6.95605 8.5791 6.76465 8.46973 6.66895C8.37402 6.55957 8.20312 6.48438 7.95703 6.44336C7.4375 6.33398 6.84277 6.375 6.17285 6.56641C5.50293 6.74414 4.85352 7.01074 4.22461 7.36621C3.60938 7.72168 3.06934 8.14551 2.60449 8.6377C2.13965 9.12988 1.85254 9.63574 1.74316 10.1553Z" fill="#353535"/>
<path d="M10.6641 6.11523V5.95117C10.6641 5.81445 10.7119 5.71875 10.8076 5.66406C10.917 5.60938 11.04 5.58203 11.1768 5.58203C11.2861 5.58203 11.3887 5.5957 11.4844 5.62305C11.5801 5.63672 11.6553 5.71191 11.71 5.84863C11.751 6.05371 11.792 6.34082 11.833 6.70996C11.874 7.06543 11.9219 7.46191 11.9766 7.89941C12.0312 8.33691 12.0859 8.80176 12.1406 9.29395C12.209 9.77246 12.2705 10.2305 12.3252 10.668C12.3936 11.0918 12.4619 11.4746 12.5303 11.8164C12.5986 12.1582 12.6738 12.418 12.7559 12.5957C12.7148 11.2832 12.7559 10.1484 12.8789 9.19141C13.002 8.2207 13.2344 7.43457 13.5762 6.83301C13.9316 6.21777 14.4102 5.79395 15.0117 5.56152C15.627 5.31543 16.3926 5.26074 17.3086 5.39746C17.7324 5.39746 17.9443 5.62305 17.9443 6.07422C17.9443 6.25195 17.8281 6.375 17.5957 6.44336C17.3633 6.49805 17.1035 6.53906 16.8164 6.56641C16.5293 6.58008 16.249 6.60059 15.9756 6.62793C15.7021 6.65527 15.5039 6.72363 15.3809 6.83301C14.8887 7.10645 14.54 7.53027 14.335 8.10449C14.1436 8.67871 14.0068 9.35547 13.9248 10.1348C13.8428 10.9141 13.7812 11.7686 13.7402 12.6982C13.7129 13.6143 13.624 14.5576 13.4736 15.5283C13.4736 15.665 13.4189 15.7676 13.3096 15.8359C13.2002 15.9043 13.0635 15.9385 12.8994 15.9385C12.749 15.9385 12.5986 15.9043 12.4482 15.8359C12.3115 15.7676 12.2021 15.665 12.1201 15.5283L10.6641 6.11523Z" fill="#353535"/>
<path d="M19.585 11.5703C19.5166 11.584 19.4141 11.6045 19.2773 11.6318C19.1406 11.6592 18.9971 11.666 18.8467 11.6523C18.6963 11.6387 18.5664 11.5977 18.457 11.5293C18.334 11.4609 18.2725 11.3447 18.2725 11.1807C18.2725 11.085 18.293 11.0166 18.334 10.9756C18.375 10.9346 18.4434 10.873 18.5391 10.791C18.8398 10.5449 19.0928 10.2305 19.2979 9.84766C19.5166 9.45117 19.7148 9.03418 19.8926 8.59668C20.0703 8.14551 20.2549 7.70117 20.4463 7.26367C20.6514 6.8125 20.8838 6.40918 21.1436 6.05371C21.4033 5.69824 21.7246 5.41113 22.1074 5.19238C22.4902 4.97363 22.9619 4.87109 23.5225 4.88477C23.7549 4.88477 24.0146 4.93945 24.3018 5.04883C24.5889 5.1582 24.8555 5.30859 25.1016 5.5C25.3477 5.67773 25.5527 5.89648 25.7168 6.15625C25.8809 6.41602 25.9629 6.70312 25.9629 7.01758C26.0312 7.12695 25.9629 7.28418 25.7578 7.48926C25.5664 7.69434 25.2998 7.91992 24.958 8.16602C24.6162 8.39844 24.2266 8.64453 23.7891 8.9043C23.3652 9.15039 22.9551 9.38281 22.5586 9.60156C22.1621 9.82031 21.8135 10.0117 21.5127 10.1758C21.2119 10.3398 21.0137 10.4629 20.918 10.5449C20.8496 10.6816 20.7949 10.8389 20.7539 11.0166C20.7129 11.1943 20.6787 11.3652 20.6514 11.5293C20.6377 11.6797 20.624 11.8232 20.6104 11.96C20.6104 12.083 20.6104 12.1787 20.6104 12.2471C20.6104 12.5068 20.5967 12.7939 20.5693 13.1084C20.5557 13.4229 20.5693 13.7236 20.6104 14.0107C20.665 14.2842 20.7812 14.5166 20.959 14.708C21.1367 14.8857 21.4375 14.9746 21.8613 14.9746C22.3125 14.9746 22.7363 14.8652 23.1328 14.6465C23.5293 14.4141 23.8984 14.1338 24.2402 13.8057C24.582 13.4775 24.8896 13.1221 25.1631 12.7393C25.4502 12.3564 25.7031 12.001 25.9219 11.6729C26.1543 11.3311 26.3594 11.0508 26.5371 10.832C26.7148 10.6133 26.8652 10.5039 26.9883 10.5039C27.125 10.5039 27.2686 10.5312 27.4189 10.5859C27.583 10.627 27.665 10.7363 27.665 10.9141C27.665 11.1602 27.5625 11.4541 27.3574 11.7959C27.166 12.1377 26.9062 12.5 26.5781 12.8828C26.2637 13.2656 25.8945 13.6484 25.4707 14.0312C25.0605 14.4004 24.6436 14.7354 24.2197 15.0361C23.7959 15.3232 23.3789 15.5625 22.9688 15.7539C22.5586 15.9316 22.1963 16.0205 21.8818 16.0205C21.2666 16.0205 20.8018 15.8701 20.4873 15.5693C20.1729 15.2686 19.9473 14.8926 19.8105 14.4414C19.6875 13.9902 19.6191 13.5117 19.6055 13.0059C19.6055 12.4863 19.5986 12.0078 19.585 11.5703ZM23.3584 6.0332C23.126 6.0332 22.8799 6.14941 22.6201 6.38184C22.3604 6.60059 22.1143 6.87402 21.8818 7.20215C21.6631 7.5166 21.4785 7.84473 21.3281 8.18652C21.1914 8.51465 21.123 8.78809 21.123 9.00684C21.3281 9.00684 21.6221 8.93164 22.0049 8.78125C22.4014 8.61719 22.791 8.41895 23.1738 8.18652C23.5566 7.9541 23.8916 7.70801 24.1787 7.44824C24.4658 7.18848 24.6094 6.94238 24.6094 6.70996C24.6094 6.58691 24.5615 6.48438 24.4658 6.40234C24.3701 6.32031 24.2539 6.25195 24.1172 6.19727C23.9941 6.14258 23.8643 6.10156 23.7275 6.07422C23.5908 6.04688 23.4678 6.0332 23.3584 6.0332Z" fill="#353535"/>
<path d="M28.4238 7.6123C28.4238 7.59863 28.417 7.57812 28.4033 7.55078C28.4033 7.50977 28.4033 7.48242 28.4033 7.46875C28.4033 7.26367 28.4854 7.14746 28.6494 7.12012C28.8135 7.0791 28.9639 7.05859 29.1006 7.05859C29.251 7.05859 29.4219 7.18848 29.6133 7.44824C29.8047 7.69434 30.0166 8.0293 30.249 8.45312C30.4951 8.86328 30.7412 9.31445 30.9873 9.80664C31.2471 10.2988 31.5068 10.7842 31.7666 11.2627C32.04 11.7275 32.3135 12.1514 32.5869 12.5342C32.874 12.917 33.1475 13.1973 33.4072 13.375C33.4893 12.1309 33.5508 11.0713 33.5918 10.1963C33.6328 9.32129 33.6602 8.58301 33.6738 7.98145C33.7012 7.37988 33.7148 6.9082 33.7148 6.56641C33.7148 6.21094 33.708 5.9375 33.6943 5.74609C33.6943 5.55469 33.6875 5.43164 33.6738 5.37695C33.6738 5.30859 33.6738 5.26074 33.6738 5.2334C33.6738 4.9873 33.7148 4.83691 33.7969 4.78223C33.8926 4.72754 34.0156 4.7002 34.166 4.7002C34.3438 4.7002 34.5283 4.72754 34.7197 4.78223C34.9111 4.83691 35.0068 4.97363 35.0068 5.19238C35.0479 6.08105 35.0479 6.9834 35.0068 7.89941C34.9795 8.80176 34.9316 9.7041 34.8633 10.6064C34.7949 11.4951 34.7402 12.3701 34.6992 13.2314C34.6582 14.0928 34.6582 14.9268 34.6992 15.7334C34.6719 15.7607 34.6104 15.7949 34.5146 15.8359C34.4189 15.8633 34.3164 15.8906 34.207 15.918C34.0977 15.9453 33.9883 15.9658 33.8789 15.9795C33.7832 15.9932 33.7148 16 33.6738 16C33.5371 15.9727 33.3252 15.7881 33.0381 15.4463C32.751 15.0908 32.4297 14.6465 32.0742 14.1133C31.7188 13.5801 31.3496 12.9854 30.9668 12.3291C30.584 11.6729 30.2148 11.0371 29.8594 10.4219C29.5176 9.80664 29.2168 9.24609 28.957 8.74023C28.6973 8.23438 28.5195 7.8584 28.4238 7.6123Z" fill="#353535"/>
<path d="M36.4629 15.5898C36.4629 14.7012 36.4424 13.7646 36.4014 12.7803C36.374 11.7959 36.3398 10.8047 36.2988 9.80664C36.2715 8.79492 36.2646 7.80371 36.2783 6.83301C36.292 5.8623 36.3535 4.95312 36.4629 4.10547C36.4902 4.0918 36.5518 4.08496 36.6475 4.08496C36.7568 4.07129 36.832 4.06445 36.873 4.06445C37.0645 4.06445 37.2148 4.09863 37.3242 4.16699C37.4473 4.22168 37.5088 4.35156 37.5088 4.55664C37.5088 5.36328 37.502 6.24512 37.4883 7.20215C37.4883 8.14551 37.4814 9.10938 37.4678 10.0938C37.4678 11.0645 37.4678 12.0283 37.4678 12.9854C37.4678 13.9424 37.4814 14.8105 37.5088 15.5898C37.5225 15.8223 37.4746 15.9727 37.3652 16.041C37.2695 16.123 37.1465 16.1641 36.9961 16.1641C36.832 16.1641 36.6953 16.123 36.5859 16.041C36.4766 15.9727 36.4355 15.8223 36.4629 15.5898ZM36.0117 0.90625C36.0117 0.742188 36.0664 0.632812 36.1758 0.578125C36.2852 0.523438 36.4082 0.496094 36.5449 0.496094C36.8184 0.496094 36.9893 0.584961 37.0576 0.762695C37.126 0.94043 37.1602 1.14551 37.1602 1.37793C37.0781 1.52832 36.9756 1.6377 36.8525 1.70605C36.7295 1.76074 36.5996 1.77441 36.4629 1.74707C36.3398 1.70605 36.2305 1.61719 36.1348 1.48047C36.0527 1.34375 36.0117 1.15234 36.0117 0.90625Z" fill="#353535"/>
<path d="M39.5186 11.5703C39.4502 11.584 39.3477 11.6045 39.2109 11.6318C39.0742 11.6592 38.9307 11.666 38.7803 11.6523C38.6299 11.6387 38.5 11.5977 38.3906 11.5293C38.2676 11.4609 38.2061 11.3447 38.2061 11.1807C38.2061 11.085 38.2266 11.0166 38.2676 10.9756C38.3086 10.9346 38.377 10.873 38.4727 10.791C38.7734 10.5449 39.0264 10.2305 39.2314 9.84766C39.4502 9.45117 39.6484 9.03418 39.8262 8.59668C40.0039 8.14551 40.1885 7.70117 40.3799 7.26367C40.585 6.8125 40.8174 6.40918 41.0771 6.05371C41.3369 5.69824 41.6582 5.41113 42.041 5.19238C42.4238 4.97363 42.8955 4.87109 43.4561 4.88477C43.6885 4.88477 43.9482 4.93945 44.2354 5.04883C44.5225 5.1582 44.7891 5.30859 45.0352 5.5C45.2812 5.67773 45.4863 5.89648 45.6504 6.15625C45.8145 6.41602 45.8965 6.70312 45.8965 7.01758C45.9648 7.12695 45.8965 7.28418 45.6914 7.48926C45.5 7.69434 45.2334 7.91992 44.8916 8.16602C44.5498 8.39844 44.1602 8.64453 43.7227 8.9043C43.2988 9.15039 42.8887 9.38281 42.4922 9.60156C42.0957 9.82031 41.7471 10.0117 41.4463 10.1758C41.1455 10.3398 40.9473 10.4629 40.8516 10.5449C40.7832 10.6816 40.7285 10.8389 40.6875 11.0166C40.6465 11.1943 40.6123 11.3652 40.585 11.5293C40.5713 11.6797 40.5576 11.8232 40.5439 11.96C40.5439 12.083 40.5439 12.1787 40.5439 12.2471C40.5439 12.5068 40.5303 12.7939 40.5029 13.1084C40.4893 13.4229 40.5029 13.7236 40.5439 14.0107C40.5986 14.2842 40.7148 14.5166 40.8926 14.708C41.0703 14.8857 41.3711 14.9746 41.7949 14.9746C42.2461 14.9746 42.6699 14.8652 43.0664 14.6465C43.4629 14.4141 43.832 14.1338 44.1738 13.8057C44.5156 13.4775 44.8232 13.1221 45.0967 12.7393C45.3838 12.3564 45.6367 12.001 45.8555 11.6729C46.0879 11.3311 46.293 11.0508 46.4707 10.832C46.6484 10.6133 46.7988 10.5039 46.9219 10.5039C47.0586 10.5039 47.2021 10.5312 47.3525 10.5859C47.5166 10.627 47.5986 10.7363 47.5986 10.9141C47.5986 11.1602 47.4961 11.4541 47.291 11.7959C47.0996 12.1377 46.8398 12.5 46.5117 12.8828C46.1973 13.2656 45.8281 13.6484 45.4043 14.0312C44.9941 14.4004 44.5771 14.7354 44.1533 15.0361C43.7295 15.3232 43.3125 15.5625 42.9023 15.7539C42.4922 15.9316 42.1299 16.0205 41.8154 16.0205C41.2002 16.0205 40.7354 15.8701 40.4209 15.5693C40.1064 15.2686 39.8809 14.8926 39.7441 14.4414C39.6211 13.9902 39.5527 13.5117 39.5391 13.0059C39.5391 12.4863 39.5322 12.0078 39.5186 11.5703ZM43.292 6.0332C43.0596 6.0332 42.8135 6.14941 42.5537 6.38184C42.2939 6.60059 42.0479 6.87402 41.8154 7.20215C41.5967 7.5166 41.4121 7.84473 41.2617 8.18652C41.125 8.51465 41.0566 8.78809 41.0566 9.00684C41.2617 9.00684 41.5557 8.93164 41.9385 8.78125C42.335 8.61719 42.7246 8.41895 43.1074 8.18652C43.4902 7.9541 43.8252 7.70801 44.1123 7.44824C44.3994 7.18848 44.543 6.94238 44.543 6.70996C44.543 6.58691 44.4951 6.48438 44.3994 6.40234C44.3037 6.32031 44.1875 6.25195 44.0508 6.19727C43.9277 6.14258 43.7979 6.10156 43.6611 6.07422C43.5244 6.04688 43.4014 6.0332 43.292 6.0332Z" fill="#353535"/>
<path d="M52.1104 15.4668C52.042 15.2617 51.9258 14.9404 51.7617 14.5029C51.5977 14.0654 51.4131 13.5732 51.208 13.0264C51.0029 12.4795 50.7842 11.8984 50.5518 11.2832C50.3193 10.668 50.1006 10.0869 49.8955 9.54004C49.6904 8.99316 49.5059 8.50098 49.3418 8.06348C49.1777 7.62598 49.0547 7.29785 48.9727 7.0791C48.8906 6.95605 48.8154 6.81934 48.7471 6.66895C48.6924 6.50488 48.665 6.34766 48.665 6.19727C48.665 6.0332 48.6992 5.88965 48.7676 5.7666C48.8359 5.64355 48.9453 5.55469 49.0957 5.5C49.2461 5.5 49.376 5.55469 49.4854 5.66406C49.6084 5.75977 49.6973 5.87598 49.752 6.0127L52.1104 12.0625C52.124 11.8711 52.1582 11.5293 52.2129 11.0371C52.2676 10.5312 52.3223 9.99805 52.377 9.4375C52.4316 8.87695 52.4795 8.35059 52.5205 7.8584C52.5752 7.35254 52.6162 7.00391 52.6436 6.8125C52.6572 6.67578 52.6709 6.51855 52.6846 6.34082C52.6982 6.16309 52.7256 5.99219 52.7666 5.82812C52.8213 5.66406 52.8965 5.52051 52.9922 5.39746C53.1016 5.27441 53.252 5.21289 53.4434 5.21289C53.5801 5.21289 53.6758 5.22656 53.7305 5.25391C53.7988 5.28125 53.874 5.36328 53.9561 5.5L57.8936 12.2266V5.29492C58.29 5.29492 58.5635 5.39746 58.7139 5.60254C58.8779 5.79395 58.9736 6.0332 59.001 6.32031C59.042 6.60742 59.042 6.91504 59.001 7.24316C58.96 7.57129 58.9463 7.86523 58.96 8.125C58.96 8.2207 58.9668 8.42578 58.9805 8.74023C58.9941 9.05469 59.0078 9.41699 59.0215 9.82715C59.0488 10.2373 59.0693 10.6816 59.083 11.1602C59.0967 11.625 59.1104 12.0625 59.124 12.4727C59.1514 12.8828 59.1719 13.2451 59.1855 13.5596C59.1992 13.874 59.2061 14.0791 59.2061 14.1748C59.3018 14.4482 59.2949 14.6328 59.1855 14.7285C59.0898 14.8105 58.9531 14.8379 58.7754 14.8105C58.5977 14.7832 58.4199 14.708 58.2422 14.585C58.0645 14.4619 57.9482 14.3252 57.8936 14.1748L53.71 7.0791C53.6143 9.14355 53.5186 10.8662 53.4229 12.2471C53.3271 13.6279 53.2383 14.79 53.1562 15.7334C53.1152 15.8838 53.0469 15.9658 52.9512 15.9795C52.8555 15.9932 52.7529 15.9795 52.6436 15.9385C52.5479 15.8838 52.4521 15.8086 52.3564 15.7129C52.2607 15.6172 52.1787 15.5352 52.1104 15.4668Z" fill="#353535"/>
</svg>
